<svg width="94" height="98" viewBox="0 0 94 98" fill="none" xmlns="http://www.w3.org/2000/svg">
<rect y="8.75146" width="84.6021" height="88.8024" rx="34" transform="rotate(-5.93743 0 8.75146)" fill="#D9D9D9"/>
<g clip-path="url(#clip0_3_23)">
<path d="M53.25 36.55L53.77 49.83C53.84 51.59 56.59 51.6 56.52 49.83L56 36.55C55.93 34.78 53.18 34.77 53.25 36.55Z" fill="#231F20"/>
<path d="M34.56 37.91L34.83 53.91C34.8594 54.2544 35.017 54.5753 35.2716 54.8091C35.5262 55.0429 35.8593 55.1726 36.205 55.1726C36.5507 55.1726 36.8838 55.0429 37.1384 54.8091C37.393 54.5753 37.5506 54.2544 37.58 53.91L37.31 37.91C37.2806 37.5655 37.123 37.2447 36.8684 37.0109C36.6138 36.7771 36.2807 36.6473 35.935 36.6473C35.5893 36.6473 35.2562 36.7771 35.0016 37.0109C34.747 37.2447 34.5894 37.5655 34.56 37.91Z" fill="#231F20"/>
<path d="M23.47 69.26C21.88 58.91 20.17 48 22.7 37.68C24.61 29.85 29.16 22.15 36.43 18.23C44.24 14 53.76 15.57 61 20.24C68.61 25.13 73.34 33.44 75.79 42C79.1 53.49 78.43 65.61 77.79 77.41C77.7 79.18 80.45 79.17 80.54 77.41C81.54 57.41 82.07 32.69 64.28 19.23C57 13.7 46.9 11.19 38.17 14.45C29.76 17.58 24 25.14 21.09 33.41C17 45.18 19 58 20.82 70C21.09 71.75 23.74 71 23.47 69.27V69.26Z" fill="#231F20"/>
<path d="M19.06 54.64C17.6766 54.8476 16.3478 55.326 15.1496 56.0477C13.9513 56.7695 12.9071 57.7204 12.0767 58.8461C11.2464 59.9719 10.6461 61.2503 10.3104 62.6082C9.97462 63.9662 9.90992 65.377 10.12 66.76C10.3305 68.194 10.8409 69.5674 11.618 70.7908C12.3951 72.0142 13.4214 73.06 14.63 73.86C17.2 75.49 20.63 75.26 22.46 72.68C22.6219 72.3658 22.6572 72.0015 22.5584 71.6622C22.4597 71.3228 22.2345 71.0343 21.9293 70.856C21.6241 70.6778 21.2622 70.6235 20.9181 70.7042C20.574 70.7849 20.274 70.9946 20.08 71.29C18.86 73 16.39 72 15.2 70.84C14.1005 69.8076 13.3213 68.4806 12.9553 67.0175C12.5893 65.5544 12.652 64.0168 13.1359 62.5884C13.6198 61.1599 14.5044 59.9008 15.6843 58.9613C16.8642 58.0218 18.2894 57.4416 19.79 57.29C19.9672 57.2457 20.1339 57.1667 20.2803 57.0575C20.4268 56.9483 20.5501 56.8111 20.6431 56.6539C20.7361 56.4967 20.797 56.3226 20.8222 56.1417C20.8474 55.9608 20.8365 55.7766 20.79 55.6C20.6958 55.2449 20.4659 54.9411 20.1497 54.754C19.8336 54.5669 19.4566 54.5116 19.1 54.6L19.06 54.64Z" fill="#231F20"/>
<path d="M21.09 71.61C21.1857 74.924 22.237 78.1397 24.1176 80.8701C25.9982 83.6005 28.6278 85.7292 31.69 87C31.8667 87.0479 32.0511 87.0599 32.2325 87.0353C32.4139 87.0107 32.5886 86.95 32.7461 86.8568C32.9036 86.7636 33.0409 86.6397 33.1498 86.4926C33.2586 86.3454 33.3369 86.1779 33.38 86C33.4631 85.6437 33.4055 85.2691 33.2192 84.9543C33.0329 84.6394 32.7323 84.4086 32.38 84.31C29.8978 83.2176 27.7752 81.4455 26.257 79.1984C24.7388 76.9512 23.8871 74.3205 23.8 71.61C23.8 69.85 21.01 69.84 21.05 71.61H21.09Z" fill="#231F20"/>
<path d="M34 85.62C34 85.3 33.95 85.76 34 85.47C34 85.34 34.05 85.21 34.08 85.09C34.14 84.8352 34.2169 84.5846 34.31 84.34C34.31 84.34 34.45 83.97 34.36 84.18L34.53 83.83C34.643 83.596 34.7699 83.3689 34.91 83.15C34.9775 83.0395 35.051 82.9326 35.13 82.83C35.13 82.83 35.39 82.49 35.23 82.69C35.39 82.49 35.57 82.29 35.75 82.1C35.9301 81.9099 36.1204 81.7296 36.32 81.56L36.62 81.31C36.42 81.46 36.76 81.21 36.77 81.21C37.2024 80.9122 37.6571 80.6481 38.13 80.42C38.39 80.29 37.99 80.42 38.28 80.35L38.65 80.22C38.9 80.14 39.15 80.06 39.4 80L39.79 79.92H39.93C40.1687 79.8884 40.4092 79.8717 40.65 79.87C40.91 79.87 41.17 79.87 41.43 79.87H41.62C41.49 79.87 41.48 79.87 41.62 79.87L42 80C42.3565 80.0884 42.7335 80.033 43.0497 79.846C43.3658 79.6589 43.5958 79.3551 43.69 79C43.7811 78.6433 43.7269 78.265 43.5395 77.9482C43.352 77.6314 43.0465 77.4018 42.69 77.31C41.4005 77.0332 40.0673 77.0308 38.7769 77.303C37.4864 77.5752 36.2677 78.1159 35.2 78.89C34.0975 79.6628 33.1711 80.6603 32.4817 81.8168C31.7923 82.9733 31.3555 84.2626 31.2 85.6C31.1973 85.7846 31.2317 85.9678 31.3011 86.1389C31.3705 86.31 31.4735 86.4654 31.604 86.5959C31.7346 86.7265 31.89 86.8295 32.061 86.8989C32.2321 86.9683 32.4154 87.0027 32.6 87C32.9663 86.995 33.3165 86.8486 33.5774 86.5914C33.8383 86.3342 33.9897 85.9862 34 85.62Z" fill="#231F20"/>
<path d="M41.28 79.91C43.0861 81.0912 45.2258 81.6564 47.3796 81.5212C49.5334 81.386 51.5857 80.5577 53.23 79.16C53.4532 78.8952 53.5688 78.5561 53.5536 78.2101C53.5385 77.8641 53.3938 77.5364 53.1482 77.2921C52.9027 77.0479 52.5743 76.9048 52.2282 76.8915C51.8821 76.8781 51.5436 76.9954 51.28 77.22L51.06 77.41C51.18 77.31 50.95 77.48 50.92 77.5C50.89 77.52 50.6 77.72 50.43 77.82L49.85 78.13L49.58 78.25L49.43 78.31C49.0392 78.4536 48.638 78.5672 48.23 78.65C47.8704 78.7414 47.501 78.7885 47.13 78.79C46.7139 78.8201 46.2961 78.8201 45.88 78.79H45.7H45.44L44.87 78.66C44.6569 78.6073 44.4467 78.5439 44.24 78.47L43.96 78.37L43.82 78.3C43.4205 78.1094 43.0361 77.8887 42.67 77.64C42.3557 77.4557 41.9811 77.4037 41.6285 77.4956C41.2759 77.5875 40.9743 77.8157 40.79 78.13C40.6056 78.4443 40.5537 78.8189 40.6456 79.1715C40.7375 79.5241 40.9657 79.8257 41.28 80.01V79.91Z" fill="#231F20"/>
<path d="M52.6 79.36L60.6 81.75C60.7767 81.7965 60.9608 81.8074 61.1417 81.7822C61.3226 81.757 61.4967 81.6961 61.6539 81.6031C61.8111 81.5101 61.9483 81.3868 62.0575 81.2403C62.1667 81.0939 62.2457 80.9272 62.29 80.75C62.3784 80.3934 62.3231 80.0164 62.136 79.7003C61.9489 79.3841 61.6451 79.1542 61.29 79.06L53.29 76.67C53.1134 76.6235 52.9292 76.6126 52.7483 76.6378C52.5674 76.663 52.3933 76.7239 52.2361 76.8169C52.0789 76.9099 51.9417 77.0332 51.8325 77.1797C51.7233 77.3261 51.6443 77.4928 51.6 77.67C51.5116 78.0266 51.567 78.4036 51.754 78.7197C51.9411 79.0359 52.2449 79.2658 52.6 79.36Z" fill="#231F20"/>
<path d="M59.31 81.82C60.5235 81.8952 61.7378 81.6858 62.8559 81.2083C63.9741 80.7308 64.9651 79.9986 65.75 79.07C66.0087 78.8008 66.1552 78.4433 66.16 78.07C66.1636 77.7962 66.0858 77.5275 65.9363 77.298C65.7868 77.0686 65.5724 76.8889 65.3204 76.7816C65.0685 76.6744 64.7903 76.6446 64.5213 76.6959C64.2523 76.7473 64.0047 76.8775 63.81 77.07C63.66 77.25 63.49 77.43 63.32 77.6L63.04 77.85C63.0013 77.8919 62.9577 77.9288 62.91 77.96C62.69 78.15 63.1 77.83 62.96 77.96C62.82 78.09 62.56 78.23 62.36 78.35C62.16 78.47 61.9 78.58 61.68 78.7H61.77L61.61 78.76L61.25 78.88C61.0204 78.9486 60.7865 79.002 60.55 79.04C60.55 79.04 60.24 79.04 60.48 79.04H60.1C59.8435 79.055 59.5864 79.055 59.33 79.04C58.9682 79.0452 58.6228 79.1912 58.3669 79.447C58.1111 79.7028 57.9651 80.0483 57.96 80.41C57.9675 80.7719 58.114 81.117 58.369 81.3739C58.624 81.6308 58.9681 81.7798 59.33 81.79L59.31 81.82Z" fill="#231F20"/>
<path d="M63.62 80.76L71.55 77.59C71.9014 77.4932 72.1999 77.2607 72.38 76.9438C72.56 76.6269 72.6068 76.2514 72.51 75.9C72.4132 75.5486 72.1807 75.25 71.8638 75.07C71.5469 74.8899 71.1714 74.8432 70.82 74.94L62.89 78.11C62.5377 78.2086 62.2371 78.4394 62.0508 78.7543C61.8645 79.0691 61.8069 79.4437 61.89 79.8C61.9343 79.9772 62.0133 80.1439 62.1225 80.2903C62.2317 80.4367 62.3688 80.5601 62.526 80.6531C62.6833 80.7461 62.8574 80.807 63.0383 80.8322C63.2192 80.8574 63.4033 80.8465 63.58 80.8L63.62 80.76Z" fill="#231F20"/>
<path d="M69.31 76.94C70.4523 78.0657 71.9389 78.776 73.5324 78.9573C75.1258 79.1385 76.7341 78.7804 78.1 77.94C78.2556 77.8494 78.3919 77.729 78.501 77.5858C78.61 77.4425 78.6899 77.2791 78.7358 77.105C78.7818 76.9309 78.793 76.7495 78.7689 76.571C78.7447 76.3926 78.6856 76.2206 78.595 76.065C78.5044 75.9094 78.384 75.7731 78.2407 75.664C78.0975 75.555 77.9341 75.4751 77.76 75.4292C77.5859 75.3832 77.4045 75.372 77.226 75.3962C77.0476 75.4203 76.8756 75.4794 76.72 75.57L76.33 75.8L76.11 75.91C75.8435 76.0443 75.556 76.1322 75.26 76.17H75.02H75C75.22 76.17 74.93 76.17 74.88 76.17H74.7C74.367 76.1922 74.033 76.1922 73.7 76.17C73.51 76.17 73.96 76.17 73.77 76.17H73.52L73.09 76.07L72.71 76C72.71 76 72.56 75.92 72.53 75.93C72.77 76.03 72.5 75.94 72.53 75.93C72.2613 75.8017 72.0037 75.6512 71.76 75.48H71.7L71.6 75.4L71.25 75C71.1227 74.8724 70.9716 74.7712 70.8051 74.7021C70.6387 74.633 70.4602 74.5975 70.28 74.5975C70.0998 74.5975 69.9213 74.633 69.7549 74.7021C69.5884 74.7712 69.4373 74.8724 69.31 75C69.0571 75.2596 68.9156 75.6076 68.9156 75.97C68.9156 76.3324 69.0571 76.6804 69.31 76.94Z" fill="#231F20"/>
<path d="M76.74 78.82L80.82 77.12C81.1609 77.0113 81.4517 76.7843 81.64 76.48C81.774 76.2448 81.8352 75.9751 81.8161 75.7051C81.7969 75.435 81.6982 75.1767 81.5324 74.9628C81.3666 74.7488 81.141 74.5887 80.8843 74.5028C80.6276 74.4169 80.3512 74.409 80.09 74.48L76 76.17C75.6581 76.2712 75.3659 76.4957 75.18 76.8C75.0882 76.9555 75.0281 77.1276 75.003 77.3064C74.978 77.4852 74.9886 77.6672 75.0341 77.8419C75.0796 78.0166 75.1593 78.1806 75.2684 78.3244C75.3775 78.4682 75.514 78.5891 75.67 78.68C75.8271 78.776 76.0026 78.838 76.1852 78.8621C76.3677 78.8862 76.5533 78.8719 76.73 78.82H76.74Z" fill="#231F20"/>
<path d="M78.38 55.08C73.46 54.82 67.57 55.39 64.77 60.08C64.1669 61.0915 63.8125 62.2318 63.736 63.407C63.6595 64.5822 63.8631 65.7588 64.33 66.84C64.8555 67.8882 65.6479 68.7794 66.6276 69.4237C67.6072 70.068 68.7394 70.4427 69.91 70.51C72.83 70.82 75.6 69.45 78.02 67.98C78.3154 67.7859 78.5251 67.486 78.6058 67.1419C78.6865 66.7978 78.6322 66.4359 78.4539 66.1307C78.2757 65.8255 77.9872 65.6003 77.6478 65.5016C77.3085 65.4028 76.9441 65.4381 76.63 65.6C74.9687 66.7943 73.0316 67.5477 71 67.79C70.2118 67.8857 69.4124 67.7628 68.6893 67.4348C67.9661 67.1067 67.3472 66.5862 66.9 65.93C66.5606 65.2603 66.3929 64.5167 66.4121 63.7661C66.4313 63.0155 66.6368 62.2815 67.01 61.63C67.9207 60.1454 69.338 59.0407 71 58.52C73.4059 57.7969 75.9321 57.5623 78.43 57.83C78.7917 57.8248 79.1372 57.6788 79.393 57.423C79.6488 57.1672 79.7948 56.8217 79.8 56.46C79.7949 56.0973 79.6492 55.7508 79.3937 55.4933C79.1381 55.2359 78.7926 55.0877 78.43 55.08H78.38Z" fill="#231F20"/>
<path d="M23.92 72V68.89C23.9242 68.5169 23.7804 68.1573 23.52 67.89C23.389 67.7592 23.2328 67.6564 23.061 67.5876C22.8891 67.5189 22.7051 67.4857 22.52 67.49C22.1565 67.4926 21.8085 67.6374 21.5506 67.8935C21.2926 68.1496 21.1452 68.4966 21.14 68.86V72C21.1368 72.3729 21.2805 72.7321 21.54 73C21.8107 73.255 22.1681 73.398 22.54 73.4C22.9078 73.3947 23.2588 73.2449 23.5171 72.9829C23.7753 72.721 23.92 72.3679 23.92 72Z" fill="#231F20"/>
</g>
<defs>
<clipPath id="clip0_3_23">
<rect width="71.83" height="74.04" fill="white" transform="translate(10 13)"/>
</clipPath>
</defs>
</svg>
